# xmcd
#
# Track frame offsets:
#	150
#	11422
#	25677
#	37140
#	51540
#	64062
#	79882
#	92007
#	104335
#	117152
#	129062
#	143725
#	158557
#	175937
#	189917
#	202647
#	215627
#	229135
#	241780
#	256185
#
# Disc length: 3642 seconds
# Revision: 0
# Processed by: cddbd v1.5.2PL0 Copyright (c) Steve Scherf et al.
# Submitted via: dBpowerAMP V12.0
#
DISCID=000e3814
DTITLE=Dewayne Bowman - Now and Then
DYEAR=2000
DGENRE=Country
TTITLE0=Here's a Dime Go Call Someone Who Cares
TTITLE1=When Uyour World Stops Turning
TTITLE2=Grasshopper Bar
TTITLE3=I'm Sorry
TTITLE4=This Song Is All for You
TTITLE5=Jealous Heart
TTITLE6=Victims of the Pretty Things
TTITLE7=Sliding Down the Rainbow
TTITLE8=Under Your Spell Again
TTITLE9=It's So Easy Loving You
TTITLE10=A Friend in Higher Places
TTITLE11=If You Were Here Tonight
TTITLE12=I Guess I Owe That Much
TTITLE13=One Owner Dog
TTITLE14=When She Cries
TTITLE15=Something About My Heart
TTITLE16=When My Life Was Loving
TTITLE17=Debbie Don't Do Dallas
TTITLE18=I Gave You My Wings
TTITLE19=Run Mule Run
EXTD=
EXTT0=
EXTT1=
EXTT2=
EXTT3=
EXTT4=
EXTT5=
EXTT6=
EXTT7=
EXTT8=
EXTT9=
EXTT10=
EXTT11=
EXTT12=
EXTT13=
EXTT14=
EXTT15=
EXTT16=
EXTT17=
EXTT18=
EXTT19=
PLAYORDER=
